<?xml version="1.0" encoding="utf-8"?>
<!-- Generator: Adobe Illustrator 24.0.1, SVG Export Plug-In . SVG Version: 6.00 Build 0)  -->
<svg version="1.1" id="Layer_1" xmlns="http://www.w3.org/2000/svg" xmlns:xlink="http://www.w3.org/1999/xlink" x="0px" y="0px"
	 viewBox="0 0 205.8 160.3" style="enable-background:new 0 0 205.8 160.3;" xml:space="preserve">
<style type="text/css">
	.st0{fill:#FCEE21;}
</style>
<ellipse transform="matrix(0.9611 -0.2761 0.2761 0.9611 -27.1919 31.8266)" class="st0" cx="99.5" cy="112.5" rx="50.5" ry="41.5"/>
<path d="M204.7,11.9C200-0.1,184-3,173.5,3c-11.1,6.3-13.4,19.8-14.3,31.5c-0.4,5.5-0.5,11-0.4,16.5c-2.4,0-4.8,0.3-7,0.8
	c-1.4-4.9-3.1-9.8-4.9-14.5c-4.3-10.9-10.6-23-23.1-25.8C112.1,9,97.6,16.5,96.7,29.4c-0.7,9.8,8,18.5,16.6,17.1
	c3.1,2.7,8.1,2.4,11.4-0.9c3.4-3.4,3.7-8.7,0.7-11.8c-3.1-3.1-8.3-2.8-11.8,0.6c-2,2-2.9,4.6-2.8,7.1c-3.8-0.1-7.4-3.1-8.7-7.5
	c-1.7-5.7,1.2-11.3,5.8-14.6c9-6.4,20.4-3.1,26.6,5.3c6,8.1,9.8,18.4,12.5,28.5c-8.6,3.3-15.6,10-19.3,18.4c-6.4-2.5-13.6-4-21.2-4
	c-5.9,0-11.9,0.9-17.8,2.5c-1.1,0.3-2.1,0.6-3.2,1c5.5-9.9,8.5-21.2,6.8-32.2C90.3,27.3,85.3,14.5,75.4,7
	c-7.1-5.3-16.2-5.9-22.8,0.5c-8.5,8.2-10,22.2-9.1,33.3c0,0.4,0.1,0.8,0.1,1.2c-9.8-4.4-21.4-6.9-31.4-3.6C3.4,41.2-1.4,49,0.3,58
	c2.5,13.2,14.4,23.4,25.4,29.9c9.2,5,20.1,6,30.7,4.5c-0.2,0.3-0.5,0.6-0.7,1c-11.2,16.3-9.3,27.9-8.8,29.6c0.4,1.5-17,14-17,14
	s19.9,0,21,2c1.2,2.3,17.9,20.6,45.3,21.3c8.3,0.2,14.5-1.6,17.8-2.5c13.9-4,25.6-12.2,33.2-23.1c3.3-4.8,5.6-9.9,6.9-15
	c1.8,0.3,3.5,0.4,5.4,0.4c19.1,0,34.5-15.4,34.5-34.5c0-17.6-13.2-32.1-30.2-34.2c-0.6-10.9-0.2-22.5,3.3-32.5
	c3.5-9.9,13.3-16.5,23.8-13c5.5,1.8,9.9,6.3,9.9,12.2c0,4.6-2.5,8.5-6.1,9.7c-0.6-2.4-2.2-4.6-4.7-5.9c-4.3-2.2-9.4-0.9-11.4,3
	c-2,3.9-0.1,8.8,4.2,11c4.1,2.1,9,1,11.2-2.6C202.6,32,208.3,21.1,204.7,11.9z M47.3,32.6c0.5-10.1,5.5-29,19.4-25.6
	c13.5,3.3,19.6,21.3,21.9,33.1c1.8,11.5-2.5,23.7-9.1,33.6c-2.5,1.2-4.9,2.5-7.2,3.9C68.8,64.8,61.5,52,50.1,45.4
	c-0.7-0.4-1.5-0.8-2.2-1.2C47.3,40.5,47.1,36.6,47.3,32.6z M66.9,74.3c-2.3-1.8-4.4-3.8-6.5-5.8c-5.6-5.6-9.3-11.8-11.3-18.7
	c6.7,4.6,11.8,10.8,15.5,18.9C65.5,70.6,66.2,72.4,66.9,74.3z M27.8,84.4C17.5,78.4,3.2,67,4,53.5c0.8-15.6,22.4-13.2,32.4-9.9
	c2.8,0.9,5.4,2,7.9,3.3c1.8,9,6,16.7,12.6,23.6c3.4,3.6,7.4,7,11.5,9.9c-2.9,2.2-5.6,4.6-8.1,7.3C49.3,90,37.4,89.7,27.8,84.4z
	 M57.8,125.8c-2.4-8.4-1.1-17.4,3.6-25.8c-0.5,6.7,0.2,13.8,2.2,20.9c3.3,11.4,9.5,20.9,17.2,27.6C69.4,144.5,60.8,136.4,57.8,125.8
	z M112.8,149c-4.6,1.3-9.2,2-13.8,2.2c-11-6.5-20.2-18.1-24.4-32.8c-3.3-11.6-3-23.1,0.1-33.1c5-3.6,10.8-6.5,17.1-8.3
	c-5,11-6.1,24.7-2.2,38.4c4.3,14.9,13.7,26.7,24.9,33.1C113.9,148.7,113.4,148.9,112.8,149z M129.6,141.1
	c-9.5-6.7-17.3-17.4-21.1-30.6c-3.6-12.6-3-25.2,1-35.7c3.9,0.1,7.7,0.7,11.2,1.7c-2.3,9.2-2.2,19.6,0.7,30c3.2,11,9.1,20.3,16.6,27
	C135.6,136.3,132.8,138.8,129.6,141.1z"/>
<path class="st0" d="M161.5,49C141.3,49,125,65.3,125,85.5s16.3,36.5,36.5,36.5S198,105.7,198,85.5S181.6,49,161.5,49z M145,77
	c0-2.8,1.6-5,3.5-5s3.5,2.2,3.5,5s-1.6,5-3.5,5S145,79.8,145,77z M175.7,98.9c-2.5,6.6-7.3,11.8-14.5,11c-5.7-0.6-11-4.5-13.7-9.7
	c-0.9-1.7,1.8-3,2.7-1.3c2.1,4,6.2,7.1,10.6,7.9c6.1,1.1,10.1-3.2,12.2-8.9C173.7,96,176.4,97,175.7,98.9z M174.5,82
	c-1.9,0-3.5-2.2-3.5-5s1.6-5,3.5-5s3.5,2.2,3.5,5S176.4,82,174.5,82z"/>
</svg>
